<?xml version="1.0" standalone="no"?>
<!DOCTYPE svg PUBLIC "-//W3C//DTD SVG 20010904//EN"
 "http://www.w3.org/TR/2001/REC-SVG-20010904/DTD/svg10.dtd">
<svg version="1.0" xmlns="http://www.w3.org/2000/svg"
 width="529.000000pt" height="527.000000pt" viewBox="0 0 529.000000 527.000000"
 preserveAspectRatio="xMidYMid meet">

<g transform="translate(0.000000,527.000000) scale(0.100000,-0.100000)"
fill="#000000" stroke="none">
<path d="M2340 4865 c-519 -70 -972 -294 -1328 -657 -181 -184 -308 -362 -417
-583 -108 -220 -174 -427 -212 -666 -25 -159 -25 -509 0 -666 104 -656 477
-1226 1033 -1578 279 -177 624 -296 975 -335 133 -16 427 -8 568 15 638 102
1194 462 1550 1005 63 97 169 304 214 420 62 159 119 402 138 587 14 136 6
437 -16 563 -62 371 -206 712 -423 1005 -82 111 -277 313 -397 410 -292 237
-667 403 -1065 470 -133 23 -483 28 -620 10z m585 -190 c538 -82 1031 -379
1355 -816 469 -632 538 -1480 179 -2181 -205 -399 -528 -714 -934 -914 -1033
-508 -2286 -70 -2781 971 -424 894 -163 1952 631 2550 291 220 669 367 1040
405 119 12 385 4 510 -15z"/>
<path d="M2613 4315 c-31 -31 -35 -40 -30 -72 8 -46 24 -63 112 -117 86 -54
106 -87 77 -125 -14 -20 -30 -27 -61 -29 -54 -4 -87 17 -112 71 l-19 42 0 -70
c0 -44 4 -65 9 -56 7 11 17 12 54 2 86 -21 136 -10 174 39 19 24 15 84 -7 112
-11 14 -51 44 -90 67 -39 23 -78 53 -87 67 -15 24 -15 27 4 52 43 57 139 27
162 -51 8 -27 9 -22 10 38 0 45 -2 65 -8 56 -8 -12 -16 -13 -49 -3 -69 21
-100 16 -139 -23z"/>
<path d="M2940 4330 c-15 -5 -18 -8 -9 -9 9 -1 19 -7 22 -13 2 -7 -4 -80 -14
-163 -10 -82 -18 -156 -18 -163 -1 -7 -11 -17 -23 -22 -21 -8 -21 -9 -3 -9 11
-1 38 -4 60 -7 35 -6 38 -5 23 7 -15 12 -16 23 -7 99 11 90 29 119 75 120 39
0 47 -23 39 -112 -7 -91 -17 -118 -42 -118 -34 0 -6 -8 52 -15 53 -6 58 -5 41
7 -17 13 -18 22 -9 105 10 107 5 133 -28 152 -24 13 -30 12 -69 -8 l-43 -22 7
73 c4 40 9 81 12 91 6 19 -20 22 -66 7z"/>
<path d="M2250 4236 c0 -7 -11 -30 -25 -50 -23 -33 -23 -36 -5 -36 19 0 20 -3
40 -120 13 -75 32 -110 60 -110 21 0 60 33 60 51 0 6 -7 3 -16 -5 -33 -34 -46
-14 -68 109 -15 84 -12 95 27 95 9 0 17 4 17 9 0 5 -15 8 -32 7 -30 -1 -33 2
-36 32 -3 31 -22 47 -22 18z"/>
<path d="M1633 4109 c-70 -30 -72 -31 -53 -47 20 -18 140 -273 140 -300 0 -9
-8 -24 -17 -34 -13 -15 -1 -12 52 12 71 32 97 48 59 36 -26 -8 -43 11 -76 85
l-26 56 52 22 c87 36 113 115 57 172 -39 39 -92 38 -188 -2z m124 -14 c12 -8
27 -31 33 -49 15 -45 -7 -89 -50 -105 l-32 -10 -34 75 c-34 72 -35 76 -17 90
24 18 73 18 100 -1z"/>
<path d="M2018 4124 c-57 -31 -74 -113 -38 -184 26 -51 55 -70 106 -70 35 0
47 5 68 31 14 17 26 37 26 44 0 7 3 22 6 32 3 10 -3 3 -15 -15 -28 -43 -62
-56 -104 -38 -36 15 -52 30 -66 68 l-10 26 89 22 89 22 -15 29 c-24 48 -84 62
-136 33z m72 -26 c11 -12 20 -25 20 -29 0 -6 -96 -39 -114 -39 -15 0 -4 52 14
70 26 26 54 25 80 -2z"/>
<path d="M3279 4116 c-82 -47 -97 -172 -28 -230 67 -56 159 -23 195 70 20 54
9 106 -30 143 -31 29 -100 37 -137 17z m98 -20 c25 -22 28 -30 27 -84 -2 -107
-65 -173 -118 -123 -29 27 -37 71 -24 133 10 48 46 98 72 98 8 0 28 -11 43
-24z"/>
<path d="M3558 4033 c6 -2 12 -11 12 -19 0 -22 -111 -267 -131 -290 -19 -20
-18 -20 26 -42 46 -22 74 -30 43 -11 -23 13 -22 34 2 88 l20 44 24 -22 c78
-73 205 7 206 129 0 25 -7 55 -15 67 -21 30 -66 38 -104 18 l-31 -15 10 25
c14 36 15 35 -32 34 -24 0 -37 -3 -30 -6z m134 -70 c33 -30 16 -125 -31 -172
-39 -39 -111 -17 -111 34 0 27 47 137 63 147 20 13 60 9 79 -9z"/>
<path d="M1501 1652 c15 -25 11 -32 -100 -165 -53 -64 -70 -78 -88 -74 -19 3
-21 2 -11 -10 6 -8 25 -23 42 -35 17 -12 25 -15 19 -8 -7 8 -13 20 -13 28 0
14 160 215 166 209 2 -2 -15 -67 -38 -145 -23 -78 -39 -145 -36 -148 3 -3 66
26 139 65 73 39 134 69 136 68 8 -8 -170 -207 -185 -207 -12 -1 -3 -13 28 -40
43 -38 68 -51 55 -30 -9 14 9 39 101 150 64 77 79 90 97 84 13 -4 2 10 -27 34
l-50 41 -103 -55 c-57 -31 -103 -52 -103 -47 0 4 14 53 30 108 16 55 30 103
30 107 0 3 -23 26 -51 49 -31 26 -46 34 -38 21z"/>
<path d="M3719 1565 c-60 -33 -62 -122 -4 -173 44 -39 85 -48 124 -27 61 31
74 102 29 160 -40 51 -99 67 -149 40z m92 -75 c63 -65 70 -83 39 -100 -16 -8
-28 -3 -71 32 -58 49 -85 88 -76 112 12 31 48 17 108 -44z"/>
<path d="M3564 1430 c-12 -5 -26 -22 -32 -39 -7 -20 -16 -29 -25 -25 -8 3 -27
-6 -43 -20 -19 -17 -24 -26 -14 -26 17 -1 113 -120 120 -151 5 -20 6 -20 43 9
25 20 33 32 24 35 -14 5 -107 124 -107 136 0 4 6 16 14 26 12 16 16 17 30 6
30 -25 106 -133 100 -142 -12 -19 13 -7 51 27 22 19 33 32 24 29 -12 -5 -30
11 -63 54 -42 55 -82 92 -96 90 -3 0 -15 -4 -26 -9z"/>
<path d="M3322 1388 c-16 -16 -15 -33 3 -48 21 -18 55 -3 55 25 0 32 -35 46
-58 23z"/>
<path d="M1870 1365 c-20 -25 -8 -50 25 -50 36 0 47 31 19 52 -23 17 -29 16
-44 -2z"/>
<path d="M3367 1291 c-21 -13 -25 -20 -14 -24 19 -7 97 -143 97 -169 0 -19 1
-19 38 3 46 28 62 42 43 37 -9 -2 -33 30 -65 84 -28 48 -55 88 -61 88 -5 0
-23 -8 -38 -19z"/>
<path d="M1816 1286 c8 -20 -74 -166 -98 -175 -15 -5 -7 -12 39 -35 33 -16 52
-21 44 -12 -10 12 -4 30 38 105 l50 91 -39 20 c-29 15 -38 16 -34 6z"/>
<path d="M1917 1224 c6 -17 -43 -161 -63 -185 -12 -13 -9 -17 24 -28 20 -8 44
-16 52 -19 12 -5 13 -3 3 9 -9 11 -6 29 12 82 29 82 30 83 54 90 41 10 46 -18
16 -98 -15 -41 -34 -79 -42 -84 -12 -6 -5 -12 26 -24 51 -21 51 -21 51 0 0 37
52 152 71 158 24 8 39 -1 39 -25 0 -32 -41 -134 -60 -151 -18 -15 -17 -17 18
-28 20 -7 43 -15 51 -18 8 -3 11 -1 8 4 -3 5 7 50 23 99 31 96 28 118 -15 134
-14 5 -36 5 -54 0 -23 -6 -31 -5 -31 4 0 28 -38 49 -79 43 -29 -3 -38 -2 -35
7 3 8 -12 19 -35 28 -33 13 -39 14 -34 2z"/>
<path d="M3220 1210 c-16 -17 -30 -25 -32 -19 -2 7 -16 5 -40 -7 -31 -14 -35
-19 -23 -28 8 -6 31 -47 50 -91 25 -58 31 -82 23 -92 -15 -19 1 -15 51 11 29
15 39 25 29 28 -7 3 -27 38 -43 78 -29 73 -28 105 6 105 16 0 78 -120 78 -153
1 -20 5 -22 24 -16 33 10 74 33 59 34 -7 0 -28 35 -48 78 -50 111 -82 128
-134 72z"/>
<path d="M2855 1205 c-8 -11 -20 -12 -55 -5 -117 23 -219 -58 -220 -175 0 -51
35 -113 78 -138 50 -30 142 -26 192 7 22 15 40 34 40 43 0 12 -6 9 -26 -11
-50 -49 -130 -51 -166 -3 -20 26 -38 92 -38 137 0 48 25 97 59 114 49 26 79
20 121 -22 l39 -38 -6 50 c-7 60 -6 59 -18 41z"/>
<path d="M3002 1149 c-62 -13 -110 -86 -67 -103 36 -13 61 24 34 51 -16 16 -2
33 26 33 17 0 26 -8 33 -27 8 -25 4 -33 -34 -75 -44 -48 -55 -83 -32 -106 19
-19 53 -14 78 13 16 17 27 22 34 15 15 -15 52 -12 66 5 11 13 10 18 -2 28 -8
7 -23 42 -32 79 -23 86 -41 101 -104 87z m52 -134 c8 -42 2 -55 -25 -55 -28 0
-33 23 -14 59 20 40 31 39 39 -4z"/>
<path d="M2311 1108 c-43 -23 -66 -65 -66 -120 0 -43 4 -53 33 -79 75 -67 172
-10 172 100 0 74 -80 130 -139 99z m77 -46 c4 -44 -16 -139 -34 -157 -18 -17
-41 -10 -49 15 -7 22 12 135 27 163 6 11 18 17 31 15 17 -2 23 -11 25 -36z"/>
</g>
</svg>
